<?xml version="1.0" ?><!DOCTYPE svg  PUBLIC '-//W3C//DTD SVG 1.1//EN'  'http://www.w3.org/Graphics/SVG/1.1/DTD/svg11.dtd'><svg enable-background="new 0 0 24 24" height="24px" id="Layer_1" version="1.1" viewBox="0 0 24 24" width="24px" xml:space="preserve" xmlns="http://www.w3.org/2000/svg" xmlns:xlink="http://www.w3.org/1999/xlink"><path d="M12,0.5C5.7,0.5,0.5,5.7,0.5,12c0,6.3,5.2,11.5,11.5,11.5c6.3,0,11.5-5.2,11.5-11.5C23.5,5.7,18.3,0.5,12,0.5z M17,16.4  c-0.1,0.2-0.3,0.2-0.4,0.2c-0.1,0-0.2,0-0.3-0.1c-2.4-1.5-5.6-1.8-9.3-1c-0.3,0.1-0.5-0.1-0.6-0.4c-0.1-0.3,0.1-0.5,0.4-0.6  c4-0.9,7.4-0.5,10.1,1.1C17.1,15.8,17.1,16.1,17,16.4z M18.1,13.4c-0.1,0.2-0.3,0.2-0.4,0.2c-0.1,0-0.2,0-0.3-0.1  c-2.9-1.8-7.2-2.3-10.6-1.2c-0.3,0.1-0.5-0.1-0.6-0.3c-0.1-0.3,0.1-0.5,0.3-0.6c3.6-1.1,8.2-0.6,11.4,1.3  C18.2,12.9,18.2,13.2,18.1,13.4z M19.4,10c-0.1,0.2-0.3,0.2-0.4,0.2c-0.1,0-0.2,0-0.2-0.1C15.3,8.2,9.6,8,6.3,9  C6.1,9.1,5.8,8.9,5.7,8.7C5.6,8.4,5.8,8.1,6,8C9.5,7,15.5,7.2,19.2,9.4C19.4,9.5,19.5,9.8,19.4,10z"/></svg>